<?xml version="1.0" encoding="UTF-8"?>
<!--Generator: Apple Native CoreSVG 232.5-->
<!DOCTYPE svg
PUBLIC "-//W3C//DTD SVG 1.1//EN"
       "http://www.w3.org/Graphics/SVG/1.1/DTD/svg11.dtd">
<svg version="1.1" xmlns="http://www.w3.org/2000/svg" xmlns:xlink="http://www.w3.org/1999/xlink" width="27.6783" height="23.533">
 <g>
  <rect height="23.533" opacity="0" width="27.6783" x="0" y="0"/>
  <path d="M6.67702 19.8838L16.8175 19.8838C19.004 19.8838 20.2504 18.6641 20.2504 16.5366L20.2504 6.97998C20.2504 4.85916 19.0737 3.6394 16.8872 3.6394L6.67702 3.6394C4.55048 3.6394 3.24414 4.85916 3.24414 6.98308L3.24414 16.6329C3.24414 18.7603 4.48744 19.8838 6.67702 19.8838ZM21.74 15.0555L24.9562 17.8211C25.3969 18.201 25.8465 18.4487 26.2913 18.4487C27.112 18.4487 27.6783 17.8672 27.6783 16.9826L27.6783 6.61828C27.6783 5.73365 27.112 5.15217 26.2913 5.15217C25.8434 5.15217 25.4 5.39983 24.9562 5.77975L21.74 8.53872Z" fill="#ff4613" fill-opacity="0.5"/>
  <path d="M19.772 22.8443C20.6296 23.6957 22.0296 23.6957 22.8645 22.8217C23.68 21.9867 23.7221 20.6191 22.8548 19.7584L3.73226 0.645683C2.87468-0.211894 1.48445-0.218555 0.63353 0.645683C-0.211177 1.48373-0.211177 2.88373 0.63353 3.73154Z" fill="#ffffff"/>
  <path d="M20.7468 21.8598C21.0553 22.1683 21.5715 22.1714 21.8734 21.8598C22.1787 21.5513 22.1819 21.0448 21.8734 20.7332L2.74773 1.62045C2.43613 1.30885 1.92966 1.30885 1.6114 1.62045C1.30956 1.92228 1.30956 2.44828 1.6114 2.74701Z" fill="#ff4613"/>
 </g>
</svg>
