<?xml version="1.0" encoding="UTF-8"?>
<!--Generator: Apple Native CoreSVG 232.5-->
<!DOCTYPE svg
PUBLIC "-//W3C//DTD SVG 1.1//EN"
       "http://www.w3.org/Graphics/SVG/1.1/DTD/svg11.dtd">
<svg version="1.1" xmlns="http://www.w3.org/2000/svg" xmlns:xlink="http://www.w3.org/1999/xlink" width="24.4342" height="16.2542">
 <g>
  <rect height="16.2542" opacity="0" width="24.4342" x="0" y="0"/>
  <path d="M3.43288 16.2444L13.5734 16.2444C15.7598 16.2444 17.0062 15.0247 17.0062 12.8972L17.0062 3.34058C17.0062 1.21976 15.8295 0 13.6431 0L3.43288 0C1.30635 0 0 1.21976 0 3.34369L0 12.9935C0 15.1209 1.2433 16.2444 3.43288 16.2444ZM18.4959 11.4161L21.712 14.1817C22.1528 14.5617 22.6024 14.8093 23.0471 14.8093C23.8678 14.8093 24.4342 14.2278 24.4342 13.3432L24.4342 2.97888C24.4342 2.09426 23.8678 1.51277 23.0471 1.51277C22.5993 1.51277 22.1559 1.76043 21.712 2.14035L18.4959 4.89932Z" fill="#ff4613"/>
 </g>
</svg>
